<?xml version="1.0" encoding="utf-8"?>
<svg viewBox="0 0 500 500" xmlns="http://www.w3.org/2000/svg">
  <path d="M 122.531 393.543 C 122.345 382.427 122.19 377.476 121.848 370.098 C 121.662 366.527 121.632 366.325 121.104 366.731 C 120.793 366.966 119.335 368.279 117.813 369.627 C 113.032 373.837 110.023 375.084 103.099 375.588 C 99.158 375.891 97.76 376.296 93.167 378.62 C 90.838 379.799 88.355 380.911 87.641 381.147 C 86.679 381.416 82.799 381.45 73.673 381.282 L 61.038 381.046 L 58.09 382.393 C 52.378 385.02 48.189 386.099 45.208 385.694 C 42.414 385.29 38.566 384.213 37.014 383.336 C 33.443 381.382 29.843 377.172 24.97 369.188 C 18.855 359.218 17.333 355.041 19.01 352.717 C 19.383 352.212 20.53 351.337 21.586 350.763 C 25.093 348.876 25.28 348.608 25.962 345.002 C 26.335 342.982 28.229 342.174 30.09 343.218 C 31.239 343.892 33.009 345.947 34.251 348.137 C 35.616 350.528 35.679 350.662 36.393 355.041 C 37.262 360.263 39.03 368.145 39.745 369.862 C 40.303 371.21 40.49 371.379 42.135 371.917 C 44.774 372.725 49.429 372.422 52.348 371.21 C 53.557 370.739 56.135 369.862 58.09 369.324 C 61.536 368.347 61.97 368.279 69.42 368.179 C 80.284 368.044 86.43 366.966 88.821 364.776 C 90.993 362.788 97.513 345.88 99.81 336.212 C 101.423 329.576 101.579 325.803 100.491 320.548 C 98.848 312.666 96.364 294.343 96.053 288.009 C 95.867 284.135 96.364 280.162 97.916 272.515 L 98.598 269.147 L 97.015 267.395 C 95.091 265.341 93.477 262.308 92.545 259.042 C 91.615 255.808 91.366 249.576 92.049 246.107 C 92.328 244.726 92.514 243.58 92.453 243.547 C 92.422 243.512 91.49 242.805 90.373 241.963 C 83.544 236.776 80.098 229.703 80.036 220.81 C 80.006 216.229 80.441 213.13 81.867 208.347 C 83.296 203.462 85.221 200.06 88.479 196.557 C 91.615 193.189 94.098 191.538 98.04 190.156 C 102.107 188.742 104.496 188.372 109.929 188.372 L 114.772 188.372 L 115.485 184.634 C 116.541 179.142 118.154 173.551 119.738 170.014 C 122.065 164.793 126.101 160.92 133.737 156.574 C 136.375 155.092 137.648 154.081 139.729 151.925 C 141.374 150.207 144.23 147.849 147.333 145.593 C 153.013 141.516 158.447 136.599 161.984 132.322 C 165.493 128.043 166.516 127.066 170.303 124.338 C 176.14 120.128 187.376 113.626 194.858 110.157 C 199.389 108.034 201.997 107.361 214.227 105.137 C 219.939 104.061 226.365 102.813 228.505 102.309 C 232.292 101.433 232.634 101.399 242.94 101.399 C 254.083 101.399 258.833 101.702 268.549 103.116 C 275.098 104.061 279.289 105.137 282.206 106.551 C 284.349 107.632 292.916 111.033 301.452 114.199 C 315.018 119.286 319.146 120.903 320.853 121.846 C 325.261 124.237 332.059 130.166 342.582 140.809 C 348.851 147.143 349.411 147.613 355.899 152.432 C 365.924 159.842 366.888 161.256 371.016 175.168 C 374.834 188.035 374.43 186.956 375.517 186.889 C 377.256 186.788 383.152 187.462 385.233 188.002 C 386.35 188.271 388.709 189.281 390.446 190.19 C 397.214 193.795 401.405 199.892 403.826 209.66 C 404.478 212.389 404.634 213.635 404.634 217.778 C 404.664 222.291 404.602 222.899 403.764 225.626 C 402.336 230.342 399.325 234.756 395.817 237.349 L 394.233 238.494 L 394.483 241.863 C 394.886 247.388 394.731 254.999 394.141 258.166 C 393.582 261.163 392.247 264.666 391.285 265.745 C 390.789 266.317 390.727 266.823 390.789 269.181 C 390.914 271.909 390.292 278.241 389.454 282.89 C 389.05 285.248 389.05 285.348 389.765 286.663 C 390.168 287.403 391.348 289.087 392.403 290.368 C 393.458 291.681 394.576 293.299 394.917 294.006 C 396.625 297.508 397.587 305.93 397.246 314.217 C 396.842 324.085 395.755 327.993 388.989 343.319 C 386.318 349.382 385.45 351.942 385.697 353.324 C 385.947 354.772 387.343 356.928 388.989 358.409 C 391.068 360.297 397.991 365.248 401.684 367.47 C 404.074 368.953 405.689 370.267 408.048 372.692 C 412.146 376.902 413.853 377.913 416.77 377.913 C 420.681 377.879 422.885 376.127 425.586 370.839 C 427.945 366.224 429 364.776 433.936 359.218 C 438.717 353.862 441.261 351.64 444.862 349.652 C 451.008 346.284 456.596 346.317 460.135 349.753 C 461.903 351.505 462.554 352.852 462.554 354.84 C 462.554 356.692 462.152 357.669 460.631 359.453 C 458.086 362.451 453.802 365.012 446.912 367.64 C 442.658 369.29 441.261 370.234 437.661 374.073 L 434.371 377.61 L 433.098 381.922 C 432.414 384.279 431.452 386.839 430.925 387.647 C 428.814 390.949 423.413 395.631 421.147 396.102 C 420.371 396.271 419.347 396.035 417.112 395.159 C 413.449 393.71 410.593 393.037 406.185 392.633 C 400.535 392.061 396.314 390.073 385.512 382.731 C 380.267 379.193 376.883 377.104 376.417 377.104 C 376.324 377.104 376.324 381.988 376.448 387.985 C 376.572 393.947 376.572 400.144 376.448 401.795 L 376.2 404.725 L 122.75 404.725 L 122.531 393.543 Z" clip-rule="evenodd" fill="#0a0a0a" stroke-linejoin="round" stroke-miterlimit="2" style=""/>
  <path d="M 126.381 396.503 C 126.381 391.62 126.164 382.052 125.915 375.181 L 125.481 362.718 L 126.629 361.707 C 130.819 358.035 133.674 354.128 136.469 348.3 C 138.518 343.955 138.61 343.046 137.338 336.242 C 135.818 327.888 136.189 322.903 139.169 310.676 C 139.697 308.553 140.194 306.465 140.287 306.06 C 140.348 305.623 140.535 305.286 140.628 305.286 C 140.752 305.286 142.305 306.093 144.105 307.105 C 147.923 309.294 152.579 311.079 156.925 312.09 C 159.439 312.663 161.147 312.797 165.493 312.83 C 176.854 312.865 187.625 310.07 197.589 304.545 C 200.786 302.759 206.871 298.515 207.305 297.775 C 207.429 297.573 207.677 298.65 207.894 300.167 C 208.733 306.633 211.931 310.272 217.828 311.45 L 219.97 311.888 L 219.876 314.415 C 219.844 315.796 219.659 319.938 219.504 323.644 C 219.038 334.423 219.069 336.175 219.939 338.162 C 221.988 342.912 227.389 345.539 232.666 344.36 C 234.993 343.855 238.841 341.699 240.798 339.846 L 242.319 338.398 L 243.685 339.543 C 246.696 342.036 251.321 343.787 254.891 343.753 C 259.827 343.719 263.924 340.25 265.352 334.861 C 266.066 332.065 266.221 322.936 265.632 316.872 C 265.352 314.078 265.135 311.618 265.135 311.416 C 265.135 311.181 265.507 311.012 266.003 311.012 C 267.432 311.012 270.846 310.103 272.367 309.327 C 275.843 307.543 278.358 303.67 279.134 298.818 C 279.351 297.471 279.538 296.326 279.6 296.259 C 279.63 296.191 280.469 296.697 281.461 297.404 C 286.428 300.839 294.593 304.342 301.763 306.093 C 308.437 307.711 311.975 308.115 319.456 308.115 C 327.186 308.149 329.917 307.711 335.566 305.556 C 342.24 303.03 350.807 297.236 355.122 292.351 C 355.712 291.678 356.302 291.139 356.425 291.139 C 356.551 291.139 356.736 292.688 356.83 294.608 C 357.42 304.309 358.444 309.597 360.741 314.55 C 363.225 319.973 363.659 322.094 363.659 329.876 L 363.689 336.444 L 362.107 342.339 C 359.902 350.456 359.126 354.634 359.064 358.675 C 359.033 361.606 359.126 362.246 359.778 363.527 C 361.269 366.592 365.273 370.432 370.27 373.632 L 372.536 375.079 L 372.597 389.8 L 372.692 404.485 L 372.692 409.522 C 374.089 409.825 345.996 410.622 251.415 410.657 L 126.381 409.795 L 126.381 396.503 Z" clip-rule="evenodd" fill="#007d9c" stroke-linejoin="round" stroke-miterlimit="2" style=""/>
  <path d="M 418.322 392.831 C 415.435 391.586 411.09 390.539 407.334 390.17 C 401.405 389.631 397.898 387.981 386.909 380.538 C 383.773 378.415 379.118 375.484 376.54 374.002 C 368.284 369.219 363.876 365.614 362.417 362.347 C 361.641 360.664 361.61 360.258 361.765 357.833 C 362.013 354.532 363.131 348.975 364.994 342.036 C 366.267 337.218 366.391 336.376 366.545 331.964 C 366.825 324.15 365.769 318.321 363.194 313.202 C 361.051 308.925 359.934 302.658 359.624 293.16 L 359.437 287.602 L 361.237 285.243 C 364.217 281.302 367.073 276.251 368.749 272.006 L 369.464 270.221 L 370.923 270.491 C 371.73 270.625 374.617 270.726 377.347 270.692 C 382.096 270.659 384.766 270.254 387.56 269.042 C 388.119 268.806 388.151 268.941 387.933 271.804 C 387.841 273.453 387.373 277.294 386.939 280.36 C 386.505 283.391 386.225 286.322 386.318 286.86 C 386.536 288.006 387.871 290.162 390.323 293.261 C 391.348 294.541 392.433 296.36 392.775 297.27 C 393.769 300.099 394.266 304.983 394.266 311.686 C 394.266 323.138 393.613 325.699 386.66 341.834 C 384.891 345.91 383.308 349.85 383.122 350.591 C 382.005 355.105 383.649 358.743 388.771 362.852 C 391.937 365.412 397.153 369.05 400.784 371.24 C 402.212 372.082 404.416 373.968 406.496 376.023 C 408.451 378.01 410.686 379.897 411.773 380.504 C 413.542 381.514 413.883 381.581 416.77 381.581 C 419.534 381.581 420.061 381.48 421.645 380.638 C 423.941 379.425 426.424 376.461 428.256 372.823 C 429.063 371.24 430.211 369.219 430.831 368.309 C 432.26 366.289 439.524 357.968 439.679 358.17 C 439.741 358.272 440.392 360.191 441.074 362.482 L 442.347 366.592 L 440.579 367.803 C 438.375 369.353 432.57 375.45 431.825 377.034 C 431.546 377.673 430.863 379.727 430.335 381.581 C 429.218 385.455 428.1 387.476 425.834 389.698 C 423.847 391.652 421.177 393.538 420.432 393.538 C 420.122 393.505 419.191 393.201 418.322 392.831 Z M 42.414 382.558 C 39.186 381.817 37.2 380.672 34.903 378.313 C 32.481 375.787 30.122 372.486 26.74 366.861 C 24.224 362.752 21.152 356.52 21.152 355.61 C 21.152 355.374 22.238 354.566 23.573 353.824 C 26.863 352.04 28.136 350.389 28.664 347.223 C 28.787 346.65 28.973 346.752 30.09 348.031 C 32.109 350.423 32.792 352.175 33.723 357.328 C 35.399 367.029 36.951 372.553 38.318 373.968 C 40.801 376.495 48.157 376.899 53.465 374.81 C 59.612 372.385 60.326 372.25 69.886 371.98 C 84.382 371.543 89.752 370.129 92.173 365.985 C 95.681 360.091 101.981 342.103 103.41 334.018 C 104.31 328.798 104.186 324.25 102.852 317.582 C 100.865 307.408 98.598 288.848 98.909 285.243 C 99.096 283.156 101.082 271.636 101.3 271.434 C 101.362 271.366 102.571 271.77 104.031 272.309 C 107.385 273.522 110.643 274.06 113.56 273.893 C 115.05 273.825 115.827 273.893 115.827 274.162 C 115.827 274.363 116.447 275.914 117.223 277.597 C 121.104 286.322 129.393 296.73 136.748 302.221 C 137.835 303.03 138.176 303.468 138.021 303.872 C 137.618 305.016 135.072 316.031 134.389 319.602 C 133.427 324.823 133.458 330.212 134.576 336.242 C 135.662 342.373 135.631 343.484 134.265 346.482 C 132.806 349.649 130.167 353.927 128.491 355.813 C 127.747 356.656 125.046 359.316 122.531 361.707 C 111.947 371.746 110.985 372.318 103.224 372.991 C 97.978 373.43 96.644 373.834 91.77 376.426 L 87.734 378.549 L 73.921 378.583 L 60.108 378.65 L 56.228 380.335 C 49.74 383.198 47.101 383.635 42.414 382.558 Z M 445.328 366.524 C 444.179 363.155 443.962 362.078 444.303 361.842 C 444.893 361.438 445.111 361.74 445.638 363.829 C 445.917 364.873 446.197 366.019 446.291 366.356 C 446.477 367.029 445.546 367.198 445.328 366.524 Z M 446.942 365.446 C 446.818 365.109 447.346 364.772 448.68 364.234 C 451.629 363.089 456.037 360.595 457.527 359.283 C 459.762 357.295 460.259 355.543 459.141 353.521 C 457.371 350.355 451.599 350.255 445.577 353.287 C 442.907 354.634 442.254 354.263 444.614 352.781 C 448.307 350.49 452.529 349.413 455.26 350.052 C 458.179 350.76 460.693 353.185 460.693 355.273 C 460.693 358.17 457.093 361.37 450.356 364.503 C 448.68 365.278 447.283 365.918 447.221 365.918 C 447.159 365.918 447.035 365.716 446.942 365.446 Z" clip-rule="evenodd" fill="#624a2e" stroke-linejoin="round" stroke-miterlimit="2" style=""/>
  <path d="M 446.303 362.818 C 445.963 361.572 446.026 361.032 446.614 361.032 C 447.142 361.032 452.234 358.371 452.823 357.765 C 453.599 357.024 453.537 356.047 452.668 355.812 C 451.954 355.609 449.563 356.317 446.614 357.63 L 444.97 358.337 L 444.41 356.924 L 443.852 355.474 L 445.281 354.666 C 447.546 353.386 450.867 352.276 453.071 352.072 C 454.748 351.903 455.399 351.971 456.578 352.544 C 458.162 353.318 459.373 355.036 459.094 356.148 C 458.783 357.395 455.958 359.888 453.32 361.302 C 450.619 362.717 447.577 364.064 446.988 364.064 C 446.801 364.064 446.491 363.525 446.303 362.818 Z" clip-rule="evenodd" stroke-linejoin="round" stroke-miterlimit="2" style="fill: rgb(98, 74, 46);"/>
  <path d="M 227.047 342.152 C 225.526 341.545 223.322 339.289 223.011 338.009 C 222.794 337.132 223.415 317.697 223.726 315.205 L 223.912 313.79 L 225.712 313.587 C 226.737 313.453 228.288 313.116 229.189 312.847 C 234.217 311.33 236.67 310.724 238.718 310.522 L 240.985 310.287 L 240.892 323.322 L 240.767 336.358 L 238.905 338.245 C 235.304 341.882 230.431 343.499 227.047 342.152 Z M 252.439 341.512 C 249.924 340.906 246.975 339.389 245.548 337.942 L 244.4 336.796 L 244.554 323.524 L 244.74 310.252 L 247.161 310.489 C 250.172 310.758 260.85 312.678 261.16 312.981 C 261.285 313.116 261.595 315.71 261.875 318.775 C 262.526 325.647 262.403 333.933 261.595 336.325 C 260.168 340.569 256.754 342.522 252.439 341.512 Z M 159.222 311.532 C 145.719 309.242 131.998 298.968 122.997 284.451 C 117.906 276.264 116.789 272.089 116.541 260.131 C 116.354 251.676 116.665 246.96 117.844 240.459 C 121.383 221.158 129.887 206.438 143.112 196.804 C 158.321 185.689 184.303 178.683 220.28 175.954 C 230.152 175.212 253.743 174.843 264.016 175.246 C 306.915 176.931 333.145 184.34 347.828 198.892 C 358.194 209.2 364.962 223.213 367.57 239.752 C 369.433 251.608 368.812 266.16 366.11 273.099 C 365.025 275.962 362.386 280.746 360.275 283.744 C 351.925 295.465 341.868 302.978 330.166 306.211 C 326.906 307.12 326.41 307.153 319.611 307.153 C 310.733 307.153 305.798 306.412 297.759 303.887 C 291.892 302.068 285.56 298.935 281.431 295.836 C 279.444 294.354 279.196 294.016 278.637 292.265 C 277.023 287.146 271.87 282.261 264.7 279.162 L 262.216 278.05 L 261.875 276.4 C 261.471 274.48 260.602 273.065 258.989 271.684 C 253.587 267.036 242.816 265.587 234.249 268.316 C 227.947 270.304 224.253 274.413 225.092 278.489 L 225.309 279.6 L 222.639 280.913 C 216.897 283.71 211.774 288.392 209.633 292.77 C 208.825 294.422 208.05 295.364 206.218 296.947 C 200.134 302.236 192.871 306.278 184.987 308.872 C 176.511 311.634 166.143 312.678 159.222 311.532 Z M 185.205 294.387 C 194.422 292.635 203.301 288.594 210.254 283.001 C 213.699 280.241 219.659 274.447 221.738 271.853 C 227.078 265.216 230.275 258.413 231.952 250.059 C 232.913 245.445 232.976 236.686 232.138 232.105 C 229.313 216.981 220.342 204.551 207.367 197.882 C 195.167 191.583 182.626 191.179 168.908 196.602 C 148.358 204.72 135.01 218.766 130.881 236.585 C 129.732 241.571 129.393 244.737 129.422 250.396 C 129.453 256.089 129.92 259.828 131.192 264.173 C 135.382 278.556 146.496 289.234 161.457 293.343 C 164.033 294.05 165.337 294.287 169.993 294.994 C 171.887 295.297 182.813 294.86 185.205 294.387 Z M 313.403 288.123 C 325.167 286.875 335.319 282.227 342.426 274.783 C 348.138 268.821 351.584 261.511 352.887 252.62 C 353.632 247.398 353.322 236.148 352.236 230.623 C 347.766 207.651 332.153 193.537 306.419 189.259 C 301.918 188.517 291.426 188.215 288.074 188.721 C 273.484 191.01 261.222 199.836 254.146 213.242 C 250.079 220.922 248.465 228.265 248.776 237.865 C 248.962 244.029 249.613 247.734 251.476 252.922 C 254.425 261.174 260.138 269.09 266.904 274.379 C 270.132 276.905 277.768 281.352 281.895 283.137 C 292.047 287.449 303.067 289.2 313.403 288.123 Z" clip-rule="evenodd" stroke-linejoin="round" stroke-miterlimit="2" style="fill: rgb(255, 255, 255);"/>
  <path d="M 167.416 289.589 C 159.812 288.41 152.362 285.175 146.557 280.596 C 142.087 277.059 137.12 270.322 135.072 264.999 C 131.409 255.467 131.099 243.475 134.202 232.9 C 136.407 225.32 139.603 219.796 145.284 213.666 C 148.637 210.06 152.145 206.86 152.145 207.365 C 152.145 207.466 151.648 208.208 150.996 209.017 C 148.017 212.857 145.036 218.684 143.515 223.668 C 141.747 229.329 141.436 231.685 141.436 238.928 C 141.466 244.654 141.559 245.9 142.18 248.697 C 144.353 258.263 148.575 266.212 155.001 272.781 C 163.226 281.167 173.501 285.783 185.048 286.322 C 189.115 286.491 194.36 286.12 195.758 285.548 C 196.006 285.446 196.223 285.514 196.223 285.682 C 196.223 286.086 191.722 287.736 188.307 288.611 C 182.255 290.128 173.439 290.566 167.416 289.589 Z" clip-rule="evenodd" fill="#6e7072" stroke-linejoin="round" stroke-miterlimit="2" style=""/>
  <path d="M 182.098 282.179 C 176.761 281.336 172.85 280.091 168.627 277.968 C 156.273 271.702 147.644 259.61 145.44 245.496 C 144.695 240.68 144.974 232.933 146.06 228.486 C 148.079 220.267 151.276 214.237 156.771 208.241 C 167.355 196.789 182.969 192.241 197.775 196.317 C 213.574 200.696 225.433 214.035 228.537 231.012 C 229.189 234.516 229.096 243.409 228.381 246.946 C 226.705 255.434 223.011 262.777 217.332 268.908 C 211.495 275.274 204.17 279.518 195.602 281.539 C 193.337 282.078 184.149 282.516 182.098 282.179 Z M 216.43 254.356 C 220.187 252.334 222.981 248.663 223.973 244.486 C 226.115 235.694 220.839 226.97 212.458 225.387 C 205.752 224.141 198.986 228.688 196.844 235.863 C 196.254 237.917 196.161 238.76 196.286 241.488 C 196.441 244.317 196.595 244.957 197.589 247.181 C 199.42 251.189 202.308 253.885 206.311 255.299 C 207.088 255.602 208.733 255.737 210.843 255.669 C 213.916 255.602 214.258 255.534 216.43 254.356 Z" clip-rule="evenodd" fill="#fefefe" stroke-linejoin="round" stroke-miterlimit="2" style=""/>
  <path d="M 213.233 246.136 C 212.272 245.597 211.434 244.082 211.434 242.937 C 211.434 241.791 212.612 240.04 213.638 239.636 C 215.499 238.928 217.672 240.209 218.107 242.296 C 218.387 243.645 217.579 245.53 216.43 246.136 C 215.282 246.811 214.319 246.811 213.233 246.136 Z M 301.608 283.189 C 295.865 282.482 293.599 281.707 297.355 281.707 C 300.738 281.707 305.984 280.562 310.455 278.844 C 323.709 273.757 334.357 261.799 338.329 247.517 C 339.757 242.465 340.098 239.668 340.068 233.707 C 340.036 229.497 339.881 227.543 339.353 224.781 C 338.112 218.414 335.69 212.385 332.153 206.929 C 330.042 203.66 324.578 197.766 321.691 195.644 C 320.449 194.735 319.55 193.926 319.705 193.858 C 320.201 193.689 325.82 196.351 328.613 198.069 C 337.987 203.862 344.786 212.587 348.014 223.029 C 350.777 232.023 351.429 244.991 349.567 253.378 C 345.872 269.851 333.021 280.527 313.869 283.054 C 311.447 283.357 303.812 283.459 301.608 283.189 Z" clip-rule="evenodd" fill="#6e7072" stroke-linejoin="round" stroke-miterlimit="2" style=""/>
  <path d="M 291.52 277.766 C 275.503 276.519 261.564 266.044 255.481 250.718 C 253.37 245.429 252.687 241.926 252.5 235.56 C 252.377 231.383 252.47 229.261 252.842 226.97 C 255.449 210.633 267.307 196.62 282.363 192.073 C 288.229 190.321 295.803 189.85 301.669 190.962 C 317.345 193.825 330.352 205.952 334.791 221.749 C 337.119 230.068 337.026 239.063 334.512 247.248 C 332.618 253.378 329.824 258.499 325.757 263.181 C 318.494 271.568 308.903 276.588 298.193 277.665 C 294.872 278.002 294.405 278.002 291.52 277.766 Z M 322.622 250.382 C 326.441 248.831 329.824 245.025 331.127 240.881 C 331.996 238.12 331.904 233.64 330.941 230.743 C 329.514 226.397 326.099 222.861 321.939 221.412 C 320.139 220.772 319.27 220.672 316.848 220.805 C 314.273 220.907 313.683 221.075 311.634 222.187 C 308.622 223.771 306.419 226.163 304.96 229.429 C 303.967 231.585 303.812 232.292 303.687 234.954 C 303.501 238.692 304.153 241.522 305.767 244.25 C 307.784 247.585 311.261 250.279 314.583 251.054 C 316.662 251.526 320.635 251.223 322.622 250.382 Z" clip-rule="evenodd" fill="#fefefe" stroke-linejoin="round" stroke-miterlimit="2" style=""/>
  <path d="M 319.86 240.781 C 318.866 239.702 318.774 239.466 318.928 238.154 C 319.394 234.347 323.895 233.64 325.261 237.143 C 326.13 239.466 324.547 241.96 322.189 241.96 C 321.194 241.96 320.729 241.723 319.86 240.781 Z M 219.038 307.61 C 216.648 307.206 214.196 305.892 213.171 304.444 C 212.054 302.86 211.309 299.56 211.557 297.202 C 211.991 293.227 214.63 289.085 218.759 285.885 C 220.589 284.469 226.737 281.033 227.449 281.033 C 227.636 281.033 228.631 281.572 229.624 282.212 C 236.328 286.591 248.776 286.894 256.194 282.852 C 257.343 282.212 258.771 281.27 259.36 280.697 L 260.415 279.653 L 262.496 280.494 C 266.53 282.179 269.542 284.099 271.839 286.591 C 274.912 289.893 275.533 291.408 275.533 295.685 C 275.533 298.684 275.409 299.29 274.633 301.176 C 272.212 306.903 267.462 308.015 255.355 305.656 C 245.795 303.805 237.135 303.905 231.361 305.959 C 226.922 307.543 222.36 308.149 219.038 307.61 Z M 108.407 270.557 C 101.453 269.075 97.388 265.437 95.401 258.869 C 94.75 256.679 94.625 255.636 94.594 252.066 C 94.594 249.741 94.657 247.686 94.78 247.517 C 94.904 247.282 96.364 247.316 99.282 247.619 C 103.007 247.99 112.102 248.023 113.25 247.653 C 113.56 247.551 113.685 249.505 113.777 256.275 C 113.871 263.887 114.088 266.987 114.74 270.188 C 114.896 270.894 114.864 270.927 112.351 270.894 C 110.922 270.86 109.152 270.726 108.407 270.557 Z M 371.916 267.594 C 370.985 267.492 370.239 267.257 370.27 267.053 C 371.016 262.002 371.326 257.084 371.234 250.988 L 371.14 243.981 L 372.225 244.25 C 374.554 244.789 381.29 244.419 386.318 243.509 C 389.02 243.004 391.317 242.7 391.441 242.802 C 391.845 243.273 391.627 256.881 391.191 258.803 C 390.54 261.665 389.484 263.955 388.429 264.933 C 385.79 267.357 379.086 268.436 371.916 267.594 Z M 105.056 244.452 C 105.148 244.082 105.614 241.993 106.049 239.77 C 107.166 234.28 109.185 225.522 110.084 222.221 C 111.761 216.225 116.541 206.86 124.953 193.05 L 125.511 192.107 L 124.643 191.736 C 123.338 191.198 119.241 190.086 118.558 190.086 C 117.627 190.086 117.627 189.412 118.465 185.336 C 119.583 179.879 120.948 175.198 122.345 172.031 C 124.238 167.72 128.026 164.115 134.482 160.31 L 137.152 158.759 L 137.369 159.804 C 137.462 160.377 137.555 161.724 137.555 162.769 C 137.555 165.429 138.363 173.379 139.108 177.993 C 139.821 182.607 141.002 187.156 142.057 189.547 L 142.832 191.266 L 142.15 191.77 C 136.997 195.509 130.664 201.944 127.281 206.929 C 120.856 216.393 116.479 228.081 114.709 240.68 C 114.275 243.678 114.027 244.621 113.654 244.621 C 113.406 244.621 111.325 244.756 109.028 244.857 C 105.087 245.059 104.901 245.059 105.056 244.452 Z" clip-rule="evenodd" fill="#6e7072" stroke-linejoin="round" stroke-miterlimit="2" style=""/>
  <path d="M 97.978 243.052 C 90.404 239.718 85.749 234.158 84.289 226.614 C 82.892 219.54 85.158 209.098 89.349 203.069 C 92.67 198.319 98.071 195.254 104.807 194.276 C 109.308 193.637 119.521 194.513 119.335 195.523 C 119.303 195.726 118.03 198.016 116.51 200.677 C 114.958 203.305 113.032 206.842 112.225 208.492 L 110.705 211.49 L 109.308 211.254 C 103.658 210.379 99.841 212.028 98.816 215.733 C 98.164 218.125 98.35 221.225 99.22 223.178 C 99.933 224.695 101.921 227.118 103.938 228.905 L 104.62 229.51 L 103.752 233.553 C 103.254 235.776 102.542 239.077 102.168 240.896 C 101.64 243.422 101.393 244.164 100.989 244.164 C 100.709 244.164 99.342 243.658 97.978 243.052 Z M 372.536 242.042 C 371.077 241.705 370.83 241.537 370.735 240.795 C 370.457 238.371 368.997 231.128 368.191 228.23 C 363.008 209.333 351.615 193.94 336.996 185.991 C 335.473 185.148 334.17 184.441 334.139 184.408 C 334.076 184.34 334.884 182.218 335.94 179.625 C 336.963 177.064 338.361 173.426 339.074 171.575 C 340.036 168.946 347.239 152.038 347.549 151.6 C 347.579 151.532 349.007 152.542 350.684 153.823 C 352.39 155.103 355.339 157.327 357.264 158.774 C 360.833 161.469 363.689 164.703 365.055 167.634 C 365.365 168.34 366.888 173.124 368.439 178.312 C 369.991 183.498 371.357 188.012 371.451 188.315 C 371.605 188.754 373.251 187.833 372.567 188.002 C 370.239 188.54 365.179 190.673 364.808 190.943 C 364.466 191.145 365.087 192.863 367.849 199.364 C 374.834 215.733 377.13 222.067 378 227.322 C 378.559 230.724 379.24 241.132 378.962 241.94 C 378.807 242.379 378.341 242.479 376.511 242.446 C 375.268 242.446 373.468 242.244 372.536 242.042 Z" clip-rule="evenodd" fill="#624a2e" stroke-linejoin="round" stroke-miterlimit="2" style=""/>
  <path d="M 383.302 236.335 C 383.209 234.886 382.96 231.989 382.774 229.901 C 382.588 227.779 382.495 226.027 382.557 225.993 C 382.619 225.926 383.427 225.42 384.358 224.848 C 386.437 223.602 388.548 221.378 389.416 219.56 C 390.907 216.528 389.914 211.846 387.244 209.286 C 385.227 207.365 383.427 206.826 379.515 206.962 L 376.255 207.096 L 373.214 199.922 C 371.537 195.981 370.233 192.713 370.357 192.646 C 370.792 192.343 375.51 191.77 377.529 191.77 C 389.324 191.77 397.022 197.969 400.374 210.128 C 401.026 212.452 401.243 214.136 401.336 217.37 C 401.523 222.12 401.15 224.411 399.66 227.744 C 398.449 230.44 394.725 234.414 391.963 235.963 C 390.007 237.075 384.917 238.928 383.891 238.928 C 383.611 238.928 383.427 238.154 383.302 236.335 Z M 143.85 187.493 C 141.988 182.238 140.685 174.087 140.032 163.678 L 139.629 157.648 L 142.112 155.087 C 143.571 153.538 146.552 151.079 149.531 148.924 C 155.429 144.713 159.838 140.671 165.517 134.27 C 170.981 128.14 174.644 125.513 188.022 118.171 C 199.415 111.904 200.842 111.434 217.512 108.435 C 222.137 107.594 227.692 106.516 229.897 106.043 C 232.07 105.572 233.901 105.202 233.963 105.202 C 234.18 105.202 234.429 107.055 235.174 113.959 C 236.913 130.061 237.005 131.745 237.067 149.496 C 237.098 158.759 237.222 167.18 237.347 168.224 L 237.594 170.145 L 232.691 170.347 C 194.603 172.031 167.38 177.758 148.755 188.099 C 146.769 189.177 145.03 190.086 144.937 190.086 C 144.845 190.086 144.348 188.907 143.85 187.493 Z M 329.539 181.328 C 318.519 176.714 301.633 173.075 283.629 171.425 C 272.207 170.347 266.835 170.111 253.209 170.078 L 239.241 170.045 L 239.024 165.496 C 238.899 163.005 238.836 154.818 238.836 147.307 C 238.899 132.756 238.65 128.68 236.756 111.972 C 236.322 108.367 236.074 105.336 236.168 105.235 C 236.477 104.864 252.215 105.101 256.778 105.504 C 267.146 106.415 275.03 107.661 278.663 108.907 C 279.685 109.243 282.2 110.288 284.25 111.198 C 287.571 112.679 297.876 116.687 306.134 119.719 C 312.435 122.01 319.078 124.671 320.599 125.513 C 324.106 127.433 332.332 134.743 341.893 144.41 L 346.767 149.328 L 345.897 151.449 C 345.401 152.595 343.942 155.965 342.608 158.928 C 341.303 161.893 339.565 166.07 338.758 168.191 C 335.654 176.274 333.046 182.674 332.859 182.641 C 332.766 182.641 331.246 182.035 329.539 181.328 Z" clip-rule="evenodd" fill="#624a2e" stroke-linejoin="round" stroke-miterlimit="2" style=""/>
  <path d="M 383.224 236.645 C 383.128 235.197 382.873 232.3 382.682 230.211 C 382.491 228.09 382.394 226.339 382.455 226.306 C 382.518 226.237 383.325 225.732 384.254 225.159 C 386.33 223.913 388.437 221.69 389.302 219.872 C 390.785 216.84 389.78 212.157 387.105 209.598 C 385.084 207.678 383.282 207.138 379.372 207.273 L 376.113 207.408 L 373.053 200.233 C 371.369 196.293 370.058 193.025 370.182 192.958 C 370.616 192.655 375.333 192.081 377.351 192.081 C 389.146 192.081 396.858 198.28 400.239 210.44 C 400.896 212.764 401.117 214.448 401.217 217.681 C 401.413 222.431 401.046 224.721 399.563 228.056 C 398.359 230.75 394.642 234.725 391.884 236.275 C 389.93 237.387 384.844 239.239 383.819 239.239 C 383.54 239.239 383.351 238.463 383.224 236.645 Z" clip-rule="evenodd" stroke-linejoin="round" stroke-miterlimit="2" style="fill: rgb(0, 125, 156);" transform="matrix(0.999891, 0.014764, -0.014764, 0.999891, 3.226045, -5.671261)"/>
  <path d="M 98.239 243.074 C 90.666 239.74 86.009 234.183 84.55 226.637 C 83.154 219.563 85.42 209.122 89.611 203.092 C 92.932 198.342 98.332 195.277 105.068 194.299 C 109.57 193.659 119.782 194.536 119.595 195.547 C 119.565 195.749 118.292 198.039 116.772 200.7 C 115.22 203.327 113.294 206.865 112.487 208.515 L 110.966 211.513 L 109.57 211.277 C 103.92 210.402 100.102 212.052 99.078 215.757 C 98.426 218.148 98.612 221.246 99.481 223.202 C 100.195 224.717 102.182 227.142 104.2 228.927 L 104.882 229.533 L 104.014 233.576 C 103.516 235.799 102.803 239.1 102.43 240.92 C 101.902 243.445 101.654 244.188 101.25 244.188 C 100.971 244.188 99.605 243.681 98.239 243.074 Z" clip-rule="evenodd" stroke-linejoin="round" stroke-miterlimit="2" style="fill: rgb(0, 125, 156);"/>
  <path d="M 104.996 244.274 C 105.089 243.903 105.554 241.814 105.989 239.592 C 107.107 234.101 109.124 225.344 110.025 222.043 C 111.701 216.046 116.481 206.683 124.893 192.871 L 125.453 191.928 L 124.582 191.558 C 123.279 191.019 119.182 189.908 118.499 189.908 C 117.568 189.908 117.568 189.234 118.405 185.158 C 119.522 179.7 120.889 175.019 122.286 171.852 C 124.18 167.54 127.966 163.937 134.423 160.131 L 137.093 158.581 L 137.31 159.625 C 137.404 160.197 137.497 161.546 137.497 162.59 C 137.497 165.251 138.303 173.201 139.048 177.814 C 139.762 182.429 140.941 186.977 141.997 189.368 L 142.773 191.086 L 142.09 191.591 C 136.937 195.331 130.604 201.765 127.221 206.749 C 120.795 216.215 116.419 227.903 114.65 240.501 C 114.215 243.499 113.967 244.442 113.594 244.442 C 113.346 244.442 111.267 244.577 108.97 244.678 C 105.027 244.879 104.842 244.879 104.996 244.274 Z" clip-rule="evenodd" stroke-linejoin="round" stroke-miterlimit="2" style="fill: rgb(98, 74, 46);"/>
  <path d="M 159.209 311.514 C 145.707 309.223 131.986 298.948 122.984 284.431 C 117.894 276.246 116.776 272.07 116.529 260.112 C 116.341 251.657 116.652 246.942 117.832 240.44 C 121.371 221.138 129.875 206.419 143.099 196.785 C 158.309 185.668 184.29 178.662 220.267 175.934 C 230.138 175.193 253.73 174.823 264.004 175.227 C 306.903 176.911 333.133 184.322 347.816 198.873 C 358.183 209.181 364.949 223.193 367.557 239.733 C 369.42 251.589 368.798 266.141 366.098 273.08 C 365.012 275.943 362.374 280.726 360.262 283.724 C 351.912 295.445 341.855 302.957 330.154 306.192 C 326.894 307.101 326.397 307.135 319.599 307.135 C 310.721 307.135 305.784 306.394 297.746 303.867 C 291.88 302.049 285.547 298.915 281.417 295.817 C 279.432 294.335 279.183 293.997 278.624 292.246 C 277.011 287.126 271.858 282.243 264.687 279.143 L 262.204 278.032 L 261.863 276.381 C 261.459 274.461 260.589 273.046 258.976 271.665 C 253.574 267.016 242.803 265.568 234.235 268.296 C 227.935 270.284 224.242 274.393 225.079 278.47 L 225.297 279.581 L 222.626 280.895 C 216.884 283.691 211.762 288.372 209.62 292.752 C 208.813 294.402 208.036 295.346 206.206 296.928 C 200.121 302.217 192.858 306.259 184.973 308.852 C 176.499 311.615 166.131 312.658 159.209 311.514 Z M 185.19 294.369 C 194.41 292.617 203.287 288.575 210.241 282.984 C 213.687 280.221 219.646 274.426 221.726 271.834 C 227.066 265.198 230.263 258.393 231.938 250.04 C 232.901 245.425 232.964 236.667 232.125 232.086 C 229.299 216.962 220.33 204.533 207.354 197.863 C 195.154 191.564 182.614 191.159 168.894 196.583 C 148.346 204.701 134.996 218.748 130.869 236.566 C 129.72 241.551 129.379 244.717 129.409 250.377 C 129.441 256.069 129.907 259.808 131.179 264.154 C 135.37 278.537 146.483 289.215 161.444 293.324 C 164.021 294.032 165.324 294.266 169.98 294.974 C 171.874 295.277 182.8 294.839 185.19 294.369 Z M 313.39 288.103 C 325.155 286.857 335.306 282.209 342.413 274.764 C 348.126 268.802 351.571 261.493 352.875 252.599 C 353.62 247.378 353.31 236.129 352.222 230.604 C 347.754 207.631 332.139 193.517 306.407 189.239 C 301.905 188.499 291.414 188.196 288.06 188.701 C 273.471 190.991 261.21 199.817 254.133 213.223 C 250.067 220.902 248.452 228.246 248.763 237.846 C 248.949 244.01 249.601 247.715 251.463 252.902 C 254.412 261.156 260.124 269.071 266.891 274.36 C 270.119 276.886 277.756 281.332 281.883 283.118 C 292.034 287.429 303.053 289.181 313.39 288.103 Z" clip-rule="evenodd" stroke-linejoin="round" stroke-miterlimit="2" style="fill: rgb(60, 56, 56);"/>
  <path d="M 443.678 361.154 C 442.964 360.379 445.137 359 449.668 357.348 C 453.456 355.968 453.331 356.842 449.483 358.797 C 446.099 360.481 443.895 361.391 443.678 361.154 Z M 442.437 356.842 C 441.475 353.643 441.939 353.172 443.181 356.136 C 444.236 358.662 444.267 358.898 443.678 359.133 C 443.336 359.269 443.026 358.662 442.437 356.842 Z" clip-rule="evenodd" stroke-linejoin="round" stroke-miterlimit="2" style="fill: rgb(110, 112, 114);"/>
  <path d="M 445.342 366.498 C 444.193 363.13 443.976 362.052 444.318 361.816 C 444.908 361.413 445.125 361.715 445.653 363.804 C 445.932 364.848 446.211 365.993 446.304 366.33 C 446.491 367.003 445.559 367.173 445.342 366.498 Z" clip-rule="evenodd" stroke-linejoin="round" stroke-miterlimit="2" style="fill: rgb(110, 112, 114);"/>
  <path d="M 443.73 361.154 C 443.016 360.378 445.188 358.998 449.72 357.347 C 453.506 355.966 453.383 356.841 449.534 358.796 C 446.15 360.479 443.947 361.39 443.73 361.154 Z" clip-rule="evenodd" stroke-linejoin="round" stroke-miterlimit="2" style="fill: rgb(110, 112, 114);"/>
</svg>